  <svg xmlns="http://www.w3.org/2000/svg" width="252" height="25" viewBox="0 0 252 25" fill="none">
  <path d="M49.657 14.0958V4.4776H50.1181V14.0958C50.1181 15.8254 49.535 17.3029 48.3717 18.5192C47.2083 19.7355 45.7951 20.3452 44.1409 20.3452V19.863C45.6731 19.863 46.9793 19.3 48.0593 18.1708C49.1274 17.0417 49.6599 15.6823 49.6599 14.0927L49.657 14.0958Z" fill="white" stroke="white" stroke-width="0.6" stroke-miterlimit="10"/>
  <path d="M73.5183 6.45909C75.0892 8.10153 75.8717 10.083 75.8717 12.4036C75.8717 14.7242 75.0862 16.7243 73.5183 18.3668C71.9474 20.0092 70.0521 20.8273 67.8326 20.8273C65.6131 20.8273 63.7 20.0061 62.1291 18.3668C60.5581 16.7243 59.7756 14.7366 59.7756 12.4036C59.7756 10.0706 60.5611 8.10153 62.1291 6.45909C63.7 4.81665 65.6012 3.99854 67.8326 3.99854C70.064 3.99854 71.9474 4.81976 73.5183 6.45909ZM67.8326 4.47758C65.735 4.47758 63.9439 5.25214 62.4593 6.80437C60.9747 8.3566 60.2338 10.223 60.2338 12.4005C60.2338 14.578 60.9747 16.4662 62.4593 18.0184C63.9439 19.5706 65.735 20.3452 67.8326 20.3452C69.9301 20.3452 71.7034 19.5706 73.1851 18.0184C74.6697 16.4662 75.4105 14.5935 75.4105 12.4005C75.4105 10.2075 74.6667 8.35349 73.1851 6.80437C71.7004 5.25214 69.9153 4.47758 67.8326 4.47758Z" fill="white" stroke="white" stroke-width="0.6" stroke-miterlimit="10"/>
  <path d="M98.7246 18.3668C97.1537 20.0092 95.2584 20.8273 93.0389 20.8273C90.8194 20.8273 88.9063 20.0061 87.3354 18.3668C85.7644 16.7243 84.9819 14.7366 84.9819 12.4036C84.9819 10.0706 85.7674 8.10153 87.3354 6.45909C88.9063 4.81665 90.8075 3.99854 93.0389 3.99854C95.2703 3.99854 97.1537 4.81976 98.7246 6.45909L98.3943 6.80437C96.9097 5.25214 95.1245 4.47758 93.0419 4.47758C90.9592 4.47758 89.1532 5.25214 87.6686 6.80437C86.1839 8.3566 85.4431 10.223 85.4431 12.4005C85.4431 14.578 86.1839 16.4662 87.6686 18.0184C89.1532 19.5706 90.9443 20.3452 93.0419 20.3452C95.1394 20.3452 96.8085 19.6142 98.2664 18.1522V12.6493H92.7473V12.1672H98.7276V18.3606L98.7246 18.3668Z" fill="white" stroke="white" stroke-width="0.6" stroke-miterlimit="10"/>
  <path d="M122.181 6.45909C123.752 8.10153 124.535 10.083 124.535 12.4036C124.535 14.7242 123.749 16.7243 122.181 18.3668C120.61 20.0092 118.715 20.8273 116.496 20.8273C114.276 20.8273 112.363 20.0061 110.792 18.3668C109.221 16.7243 108.439 14.7366 108.439 12.4036C108.439 10.0706 109.224 8.10153 110.792 6.45909C112.363 4.81665 114.264 3.99854 116.496 3.99854C118.727 3.99854 120.61 4.81976 122.181 6.45909ZM116.496 4.47758C114.398 4.47758 112.607 5.25214 111.122 6.80437C109.638 8.3566 108.897 10.223 108.897 12.4005C108.897 14.578 109.638 16.4662 111.122 18.0184C112.607 19.5706 114.398 20.3452 116.496 20.3452C118.593 20.3452 120.366 19.5706 121.848 18.0184C123.333 16.4662 124.074 14.5935 124.074 12.4005C124.074 10.2075 123.33 8.35349 121.848 6.80437C120.363 5.25214 118.578 4.47758 116.496 4.47758Z" fill="white" stroke="white" stroke-width="0.6" stroke-miterlimit="10"/>
  <path d="M147.384 18.3668C145.814 20.0092 143.918 20.8273 141.699 20.8273C139.479 20.8273 137.566 20.0061 135.995 18.3668C134.424 16.7243 133.642 14.7366 133.642 12.4036C133.642 10.0706 134.427 8.10153 135.995 6.45909C137.566 4.81665 139.467 3.99854 141.699 3.99854C143.93 3.99854 145.814 4.81976 147.384 6.45909L147.054 6.80437C145.57 5.25214 143.784 4.47758 141.699 4.47758C139.613 4.47758 137.81 5.25214 136.328 6.80437C134.844 8.3566 134.103 10.223 134.103 12.4005C134.103 14.578 134.844 16.4662 136.328 18.0184C137.813 19.5706 139.604 20.3452 141.699 20.3452C143.793 20.3452 145.465 19.6142 146.923 18.1522V12.6493H141.404V12.1672H147.384V18.3606V18.3668Z" fill="white"/>
  <path d="M158.018 4.4776H158.479V19.8662H166.759V20.3483H158.021V4.4807L158.018 4.4776Z" fill="white"/>
  <path d="M186.938 6.45909C188.508 8.10153 189.291 10.083 189.291 12.4036C189.291 14.7242 188.505 16.7243 186.938 18.3668C185.367 20.0092 183.471 20.8273 181.252 20.8273C179.032 20.8273 177.119 20.0061 175.548 18.3668C173.977 16.7243 173.192 14.7366 173.192 12.4036C173.192 10.0706 173.977 8.10153 175.548 6.45909C177.119 4.81665 179.02 3.99854 181.252 3.99854C183.483 3.99854 185.367 4.81976 186.938 6.45909ZM181.252 4.47758C179.154 4.47758 177.363 5.25214 175.882 6.80437C174.397 8.3566 173.656 10.223 173.656 12.4005C173.656 14.578 174.397 16.4662 175.882 18.0184C177.366 19.5706 179.154 20.3452 181.252 20.3452C183.349 20.3452 185.123 19.5706 186.607 18.0184C188.092 16.4662 188.833 14.5935 188.833 12.4005C188.833 10.2075 188.092 8.35349 186.607 6.80437C185.123 5.25214 183.337 4.47758 181.252 4.47758Z" fill="white"/>
  <path d="M199.413 4.4776H205.851C206.931 4.4776 207.85 4.87576 208.612 5.66899C209.371 6.46532 209.752 7.42652 209.752 8.5557C209.752 9.68488 209.371 10.6647 208.612 11.4611C208.243 11.8468 207.844 12.133 207.416 12.3259C208.029 12.5063 208.582 12.8516 209.07 13.3648C209.829 14.1612 210.21 15.1224 210.21 16.2484C210.21 17.3745 209.829 18.3575 209.07 19.1538C208.312 19.9501 207.389 20.3452 206.312 20.3452H199.413V4.4776ZM199.874 4.95975V12.1734H205.854C206.8 12.1734 207.609 11.8219 208.282 11.1158C208.957 10.4097 209.293 9.55735 209.293 8.55882C209.293 7.56029 208.957 6.72351 208.282 6.0205C207.606 5.31437 206.797 4.96287 205.854 4.96287H199.874V4.95975ZM199.874 12.6525V19.8662H206.312C207.255 19.8662 208.068 19.5146 208.74 18.8085C209.415 18.1024 209.752 17.2501 209.752 16.2484C209.752 15.2468 209.415 14.4162 208.74 13.7101C208.065 13.004 207.255 12.6525 206.312 12.6525H199.874Z" fill="white"/>
  <path d="M226.053 4.4776L233.137 20.3452H232.622L231.462 17.7478H220.055L218.895 20.3452H218.38L225.464 4.4776H226.053ZM231.242 17.2687L225.758 4.97842L220.275 17.2687H231.239H231.242Z" fill="white"/>
  <path d="M242.557 4.4776H243.018V19.8662H251.298V20.3483H242.56V4.4807L242.557 4.4776Z" fill="white"/>
  <path d="M13.7772 0.265686H13.2034C11.7893 0.265686 10.6388 1.46856 10.6388 2.94706V15.5331C10.6388 17.8932 9.87987 19.09 8.38238 19.09C8.11293 19.09 7.89388 19.3191 7.89388 19.6008C7.89388 19.8825 8.11293 20.1115 8.38238 20.1115C9.59006 20.1115 11.6158 19.5167 11.6158 15.5331V2.94706C11.6158 2.03199 12.3282 1.28716 13.2034 1.28716H13.7772C14.6524 1.28716 15.3648 2.03199 15.3648 2.94706V15.452C15.3648 18.2581 14.6301 20.45 13.1801 21.966C11.9211 23.2823 10.2453 23.9775 8.33198 23.9775C5.34767 23.9775 2.78595 22.1149 1.64515 19.1174C1.54532 18.8559 1.26133 18.7272 1.01029 18.8316C0.75926 18.936 0.637134 19.2329 0.736967 19.4954C2.02897 22.8912 4.93865 25 8.33198 25C10.5108 25 12.4261 24.2015 13.8712 22.6895C15.5112 20.9749 16.3428 18.5408 16.3428 15.4541V2.94706C16.3428 1.46856 15.1923 0.265686 13.7782 0.265686H13.7772Z" fill="url(#paint0_linear_84_222)"/>
  <path d="M35.7811 12.1191C35.5155 12.1191 35.3003 12.344 35.3003 12.6217V19.4609C35.3003 19.921 35.1142 20.3608 34.7886 20.6699C32.5351 22.8121 29.6836 23.9917 26.7593 23.9917C20.7248 23.9917 16.3458 19.2441 16.3458 12.7018V12.6481C16.3458 9.70827 17.3354 6.92961 19.1314 4.82484C21.0679 2.55489 23.7867 1.3044 26.7855 1.3044C29.7844 1.3044 31.7296 2.11306 34.0161 4.0942C34.6781 4.66777 34.7721 5.69836 34.2254 6.39151L33.8668 6.84752C33.3211 7.53966 32.3364 7.64201 31.6725 7.07553C30.2884 5.89597 28.9237 5.1096 26.7603 5.1096C22.5518 5.1096 20.0376 8.92899 20.0376 12.6217V12.6754C20.0376 14.5998 20.6153 16.4056 21.663 17.7615C22.8901 19.3484 24.6619 20.1865 26.7855 20.1865C28.4032 20.1865 29.9569 19.6555 31.403 18.6087C31.5329 18.5144 31.6104 18.3604 31.6104 18.1952V12.6481C31.6104 12.3704 31.3952 12.1454 31.1297 12.1454H26.5548C26.2893 12.1454 26.0741 12.3704 26.0741 12.6481C26.0741 12.9257 26.2893 13.1507 26.5548 13.1507H30.6489V17.9267C29.4267 18.7587 28.1279 19.1802 26.7855 19.1802C22.8097 19.1802 20.9991 15.8077 20.9991 12.6744V12.6207C20.9991 9.4225 23.1537 6.11486 26.7603 6.11486C28.6542 6.11486 29.7727 6.75227 31.0647 7.8538C32.1387 8.76887 33.7292 8.60471 34.6102 7.48595L34.9689 7.02993C35.8509 5.90914 35.6997 4.24519 34.6306 3.31897C32.1522 1.17468 29.8793 0.299133 26.7845 0.299133C23.5075 0.299133 20.5348 1.66819 18.4132 4.155C16.4592 6.44522 15.3833 9.461 15.3833 12.6481V12.7018C15.3833 19.8257 20.1675 24.997 26.7593 24.997C29.923 24.997 33.0042 23.7242 35.4351 21.4137C35.9604 20.9141 36.2618 20.2017 36.2618 19.4599V12.6207C36.2618 12.343 36.0467 12.1181 35.7811 12.1181V12.1191Z" fill="url(#paint1_linear_84_222)"/>
  <defs>
    <linearGradient id="paint0_linear_84_222" x1="2.52716" y1="22.4341" x2="20.029" y2="5.6934" gradientUnits="userSpaceOnUse">
      <stop stop-color="#FAAC4B"/>
      <stop offset="0.05" stop-color="#F9A449"/>
      <stop offset="0.12" stop-color="#F69044"/>
      <stop offset="0.21" stop-color="#F36E3D"/>
      <stop offset="0.31" stop-color="#EE4033"/>
      <stop offset="0.33" stop-color="#ED3431"/>
      <stop offset="0.66" stop-color="#C5168C"/>
      <stop offset="1" stop-color="#00BCF1"/>
    </linearGradient>
    <linearGradient id="paint1_linear_84_222" x1="25.823" y1="24.998" x2="25.823" y2="0.299133" gradientUnits="userSpaceOnUse">
      <stop stop-color="#FAAC4B"/>
      <stop offset="0.03" stop-color="#F9A449"/>
      <stop offset="0.08" stop-color="#F69044"/>
      <stop offset="0.13" stop-color="#F36E3D"/>
      <stop offset="0.2" stop-color="#EE4033"/>
      <stop offset="0.21" stop-color="#ED3431"/>
      <stop offset="0.28" stop-color="#DF2950"/>
      <stop offset="0.34" stop-color="#D3216A"/>
      <stop offset="0.41" stop-color="#CB1A7D"/>
      <stop offset="0.48" stop-color="#C61788"/>
      <stop offset="0.56" stop-color="#C5168C"/>
      <stop offset="0.82" stop-color="#00BCF1"/>
    </linearGradient>
  </defs>
</svg>